<svg version="1" xmlns="http://www.w3.org/2000/svg" width="162.667" height="162.667" viewBox="0 0 122.000000 122.000000"><path d="M72.1 2.1c-7.8 2.5-15 9.1-16.9 15.6-1.3 4.3-1.3 4.3-6 4.3-2.6 0-5.6.3-6.8.6-1.7.4-2.6-.3-4.7-3.9C32.1 9.3 23.2 4.1 14.9 5.5c-5.6 1-4.8 2.1 1.1 1.7 2.8-.2 6.2-.1 7.6.2 3.4.9 11.1 8.2 13.4 12.7 2.2 4.3 1.5 5.7-1.5 2.9-2.4-2.3-9.7-5-13.4-5-3 0-7.3 2-7.8 3.6-.2.6.6 1.4 1.7 1.7 1.7.4 2.1 1.2 1.8 3.4-.2 2.3.3 3.1 3.2 4.8 9 5.1 10 5.9 9.4 8-.4 1.1-2.2 4.3-4 7.1-1.9 2.8-3.4 6.1-3.4 7.2 0 5.5 11.7 13.1 20.6 13.4 3.3.1 3.3.1 1.8 2.9-.8 1.6-1.9 6.3-2.5 10.6-1.6 11.7-1.7 12-3.9 12.6-2.1.5-2.6 4.3-1.1 8.2.5 1.1.4 2.8-.1 3.7-.7 1.4-.5 1.8.9 1.8.9 0 2.6 1.1 3.8 2.5 1.1 1.4 3.2 2.7 4.6 2.9 1.5.1 3.5 1.1 4.5 2.1 4 4 12.5 6.8 20.9 6.9 9.9.1 17.2-2.1 25.8-7.9 8.6-5.8 12.2-11.7 12.2-20.3 0-6-.2-6.6-3.4-9.4-1.8-1.6-4.8-6-6.7-9.7-3.4-6.8-6.7-10.8-17.6-20.9-3.5-3.2-5.5-5.8-5.2-6.7.3-.7-.5-2-1.9-2.9-3.8-2.6-5.1-6.2-3-9 1.6-2.1 1.7-2.2 5.1-.5 4.8 2.5 5.7 1.8 5.6-4.9-.1-7.8-.2-8-2.1-7.8-1 0-4-.5-6.6-1.3-4.7-1.4-4.9-1.3-9 1.6-3.6 2.5-4.6 2.8-6.9 1.9-4.7-1.7-2.8-8.7 3.7-14.5 4.7-4.1 8.7-5.8 17.4-7.5C85.6.4 85.9.2 82.5.2c-2.2-.1-6.9.8-10.4 1.9z"/></svg>